<svg width="122" height="50" fill="none" xmlns="http://www.w3.org/2000/svg"><g clip-path="url(#a)" fill="#1D63ED"><path d="M34.581 22.4c-.862-.58-3.126-.828-4.773-.385-.088-1.64-.934-3.022-2.48-4.227l-.573-.385-.382.577c-.75 1.138-1.066 2.656-.954 4.035.088.85.383 1.805.954 2.498-2.142 1.243-4.118.961-12.865.961H.003c-.04 1.975.278 5.775 2.694 8.868.267.341.56.672.877.99 1.965 1.967 4.933 3.41 9.37 3.413 6.771.007 12.572-3.653 16.1-12.502 1.162.019 4.227.208 5.727-2.69.037-.049.382-.769.382-.769l-.572-.384zM8.817 20.593H5.019v3.797h3.798v-3.797zm4.905 0H9.925v3.797h3.797v-3.797zm4.907 0H14.83v3.797h3.798v-3.797zm4.906 0h-3.798v3.797h3.798v-3.797zm-19.625 0H.113v3.797H3.91v-3.797zm4.907-4.797H5.019v3.797h3.798v-3.797zm4.905 0H9.925v3.797h3.797v-3.797zm4.907 0H14.83v3.797h3.798v-3.797zm0-4.797H14.83v3.798h3.798V11zM121.764 32.918c0 .99-.777 1.767-1.788 1.767-1.011 0-1.799-.777-1.799-1.767 0-.99.798-1.746 1.799-1.746s1.788.777 1.788 1.746zm-3.14 0c0 .777.575 1.394 1.363 1.394s1.331-.617 1.331-1.383c0-.767-.565-1.406-1.341-1.406s-1.352.628-1.352 1.395h-.001zm1.076.916h-.405v-1.746a3.54 3.54 0 0 1 .671-.054c.33 0 .478.054.606.128a.48.48 0 0 1 .171.384c0 .191-.149.34-.361.404v.022c.169.063.265.19.319.425.052.266.084.373.128.437h-.437c-.053-.064-.086-.224-.138-.427-.032-.19-.139-.276-.363-.276h-.191v.703zm.01-.99h.191c.224 0 .405-.075.405-.256 0-.16-.117-.267-.373-.267a.9.9 0 0 0-.223.023v.5zM53.169 15.249c-.25-.245-.551-.37-.911-.37s-.67.125-.91.37c-.242.244-.36.558-.36.932v6.241c-1.24-1.024-2.669-1.54-4.295-1.54-1.89 0-3.506.682-4.846 2.052-1.339 1.366-2.004 3.017-2.004 4.954 0 1.938.67 3.585 2.004 4.955 1.34 1.365 2.952 2.053 4.846 2.053 1.894 0 3.489-.683 4.846-2.053 1.339-1.352 2.004-3.003 2.004-4.955V16.181c0-.374-.123-.688-.374-.932zM50.65 29.577v.01c-.224.53-.529.996-.916 1.392a4.375 4.375 0 0 1-1.361.95c-.524.236-1.08.351-1.676.351a4.096 4.096 0 0 1-1.69-.35 4.311 4.311 0 0 1-1.357-.946 4.505 4.505 0 0 1-.91-1.393 4.38 4.38 0 0 1-.337-1.703 4.46 4.46 0 0 1 1.248-3.096 4.37 4.37 0 0 1 1.356-.945 4.066 4.066 0 0 1 1.69-.35c.605 0 1.152.115 1.675.35a4.32 4.32 0 0 1 1.362.95c.387.402.692.868.916 1.394.223.53.337 1.093.337 1.693a4.3 4.3 0 0 1-.337 1.693zM109.759 25.2a6.81 6.81 0 0 0-1.503-2.257l-.009-.005c-1.353-1.365-2.97-2.052-4.846-2.052-1.875 0-3.507.682-4.846 2.053-1.34 1.365-2.004 3.017-2.004 4.954 0 1.937.67 3.584 2.004 4.954 1.34 1.365 2.952 2.053 4.846 2.053 1.721 0 3.21-.567 4.477-1.702.245-.258.369-.572.369-.937 0-.365-.118-.687-.36-.932a1.23 1.23 0 0 0-.911-.369c-.318.01-.601.116-.842.328a4.03 4.03 0 0 1-1.248.752c-.451.166-.943.25-1.48.25-.474 0-.929-.074-1.361-.226a4.382 4.382 0 0 1-1.198-.632 4.249 4.249 0 0 1-.947-.978 4.24 4.24 0 0 1-.61-1.26h9.687c.359 0 .659-.124.91-.369.251-.244.374-.558.374-.932 0-.968-.169-1.868-.501-2.694h-.001zm-10.48 1.392c.133-.457.333-.876.602-1.259.269-.378.587-.706.952-.978.369-.272.769-.48 1.211-.632a4.119 4.119 0 0 1 1.357-.226c.466 0 .916.074 1.352.226.437.152.839.36 1.198.632.365.272.683.595.952.978.273.379.479.798.62 1.26h-8.244zM121.663 21.762a2.375 2.375 0 0 0-.86-.53 4.98 4.98 0 0 0-1.139-.268 9.443 9.443 0 0 0-1.156-.074c-.816 0-1.581.134-2.3.402-.72.267-1.385.65-1.995 1.148v-.249c0-.36-.123-.664-.374-.918a1.213 1.213 0 0 0-.897-.382c-.35 0-.66.129-.91.383a1.26 1.26 0 0 0-.374.917V33.6c0 .36.123.664.374.918.25.253.55.382.91.382.361 0 .651-.129.897-.382a1.26 1.26 0 0 0 .374-.918v-5.707c0-.609.114-1.18.337-1.716.223-.535.528-.996.915-1.393.388-.397.843-.71 1.362-.937a4.105 4.105 0 0 1 1.677-.346c.597 0 1.16.107 1.675.314.205.092.383.138.538.138.178 0 .346-.032.501-.1a1.27 1.27 0 0 0 .405-.282 1.372 1.372 0 0 0 .378-.932c0-.36-.114-.65-.341-.877h.004-.001zM68.188 25.204a6.9 6.9 0 0 0-1.498-2.265c-1.352-1.365-2.969-2.053-4.846-2.053-1.876 0-3.506.683-4.845 2.053-1.34 1.365-2.004 3.017-2.004 4.954 0 1.938.67 3.585 2.004 4.955 1.34 1.365 2.951 2.052 4.845 2.052 1.895 0 3.49-.682 4.846-2.052 1.34-1.352 2.004-3.003 2.004-4.955a7.42 7.42 0 0 0-.505-2.69zm-2.386 4.373v.01c-.223.53-.528.996-.915 1.392a4.373 4.373 0 0 1-1.362.95c-.519.236-1.08.352-1.676.352a4.095 4.095 0 0 1-1.69-.351 4.31 4.31 0 0 1-1.356-.946 4.506 4.506 0 0 1-.91-1.393 4.38 4.38 0 0 1-.338-1.702 4.46 4.46 0 0 1 1.248-3.096c.382-.397.838-.71 1.357-.946a4.066 4.066 0 0 1 1.69-.35c.605 0 1.151.115 1.675.35.524.236.975.55 1.362.95.387.402.692.868.915 1.394.223.53.337 1.093.337 1.693 0 .6-.114 1.167-.337 1.693zM95.585 22.187c0-.175-.036-.342-.104-.498a1.45 1.45 0 0 0-.273-.42 1.192 1.192 0 0 0-.406-.281 1.3 1.3 0 0 0-.5-.102 1.2 1.2 0 0 0-.684.199l-7.313 4.867V16.19c0-.369-.123-.678-.374-.932a1.214 1.214 0 0 0-.897-.382c-.35 0-.66.129-.91.382-.251.254-.374.563-.374.932v17.391c0 .36.123.67.373.928s.551.387.911.387.652-.129.897-.387c.25-.258.374-.568.374-.928v-4.516l1.494-1 5.651 6.49c.228.226.515.336.856.336.178 0 .347-.032.501-.101.155-.065.292-.161.405-.281a1.383 1.383 0 0 0 .378-.918c0-.341-.118-.646-.355-.913l-5.26-6.057 5.123-3.404c.328-.226.487-.572.487-1.039v.01-.001zM73.931 24.784c.392-.397.848-.71 1.371-.936a4.104 4.104 0 0 1 1.676-.347c.538 0 1.034.093 1.494.277.455.184.893.457 1.307.812.246.198.524.3.833.3.37 0 .67-.125.911-.375.242-.249.36-.563.36-.936a1.3 1.3 0 0 0-.442-.987c-1.257-1.135-2.746-1.703-4.463-1.703-1.89 0-3.506.683-4.845 2.053-1.34 1.366-2.004 3.017-2.004 4.954 0 1.938.67 3.585 2.004 4.955 1.339 1.365 2.95 2.053 4.845 2.053 1.713 0 3.202-.568 4.463-1.703.269-.276.406-.595.406-.964s-.119-.687-.36-.932a1.23 1.23 0 0 0-.91-.369c-.31.01-.579.102-.806.277-.41.36-.838.627-1.298.807-.456.18-.952.267-1.494.267a4.104 4.104 0 0 1-1.676-.346 4.339 4.339 0 0 1-2.296-2.33 4.414 4.414 0 0 1-.337-1.715c0-.609.114-1.18.337-1.716a4.33 4.33 0 0 1 .925-1.393v-.005.002z"/></g><defs><clipPath id="a"><path fill="#fff" d="M0 0h122v50H0z"/></clipPath></defs></svg>