<svg width="122" height="50" fill="none" xmlns="http://www.w3.org/2000/svg"><path d="M36.22 23.46h-6.664a.31.31 0 0 0-.31.311v3.256c0 .172.138.313.31.313h2.6v4.046s-.583.198-2.197.198c-1.904 0-4.564-.695-4.564-6.539 0-5.844 2.77-6.614 5.37-6.614 2.25 0 3.22.396 3.837.588.194.06.372-.134.372-.306l.745-3.146a.283.283 0 0 0-.12-.242c-.25-.179-1.778-1.034-5.64-1.034-4.447-.003-9.011 1.89-9.011 10.98 0 9.092 5.224 10.447 9.628 10.447 3.645 0 5.856-1.558 5.856-1.558.09-.05.101-.178.101-.235V23.771a.31.31 0 0 0-.31-.31h-.002zM70.564 15.377a.309.309 0 0 0-.308-.312h-3.752c-.172 0-.31.14-.31.312v7.246h-5.848v-7.246a.31.31 0 0 0-.31-.312h-3.752c-.172 0-.31.14-.31.312V35c0 .173.138.314.31.314h3.752c.171 0 .31-.14.31-.314v-8.392h5.848L66.183 35c0 .173.138.314.31.314h3.76c.172 0 .309-.14.31-.314V15.377zM43.3 17.951a2.43 2.43 0 0 0-2.419-2.442 2.43 2.43 0 0 0-2.42 2.442 2.43 2.43 0 0 0 2.42 2.442c1.337 0 2.42-1.093 2.42-2.442zM43.032 30.86v-9.056a.312.312 0 0 0-.31-.313h-3.74c-.172 0-.326.177-.326.35v12.977c0 .38.237.495.546.495h3.37c.37 0 .46-.18.46-.502V30.86zM84.822 21.52h-3.723c-.172 0-.31.141-.31.315v9.621s-.948.691-2.288.691c-1.341 0-1.7-.61-1.7-1.923v-8.39a.312.312 0 0 0-.31-.314h-3.778c-.17 0-.31.141-.31.315v9.025c0 3.901 2.174 4.856 5.168 4.856 2.455 0 4.437-1.355 4.437-1.355s.095.715.136.798c.042.084.154.17.273.17l2.404-.011c.17 0 .311-.141.311-.313v-13.17a.314.314 0 0 0-.313-.315h.002zM95 21.078c-2.116 0-3.554.944-3.554.944v-6.645a.31.31 0 0 0-.31-.312h-3.763c-.171 0-.31.14-.31.312V35c0 .173.139.314.31.314h2.612c.116 0 .207-.061.273-.167.063-.105.158-.904.158-.904s1.539 1.456 4.452 1.456c3.419 0 5.381-1.733 5.381-7.782 0-6.048-3.133-6.838-5.25-6.838zM93.53 32.132c-1.292-.04-2.166-.625-2.166-.625v-6.213s.863-.53 1.924-.625c1.341-.121 2.633.284 2.633 3.48 0 3.371-.583 4.036-2.388 3.983h-.003zM53.816 21.487h-2.814l-.004-3.716c0-.14-.073-.211-.236-.211h-3.835c-.15 0-.229.066-.229.209v3.84s-1.922.463-2.052.5a.31.31 0 0 0-.224.3v2.414a.31.31 0 0 0 .31.312h1.966v5.804c0 4.313 3.027 4.735 5.068 4.735.934 0 2.05-.3 2.235-.367.112-.042.176-.157.176-.282V32.37a.311.311 0 0 0-.308-.312c-.165 0-.584.066-1.015.066-1.383 0-1.852-.642-1.852-1.474v-5.516h2.814c.172 0 .31-.14.31-.312V21.8a.31.31 0 0 0-.31-.313z" fill="#100E0F"/></svg>