<svg width="122" height="50" fill="none" xmlns="http://www.w3.org/2000/svg"><path d="M111.951 19.195c-.296 0-.584.06-.839.205l-8.069 4.66a1.7 1.7 0 0 0-.839 1.473v9.302c0 .604.317 1.172.839 1.474l2.107 1.214c1.024.505 1.402.496 1.868.496 1.516 0 2.381-.92 2.381-2.518v-9.177c0-.13-.113-.223-.24-.223h-1.011c-.129 0-.239.095-.239.223v9.182c0 .709-.739 1.421-1.936.822l-2.191-1.285c-.077-.042-.137-.119-.137-.205v-9.302c0-.088.059-.178.137-.223l8.052-4.643a.237.237 0 0 1 .24 0l8.052 4.643a.274.274 0 0 1 .137.223v9.302a.26.26 0 0 1-.12.223l-8.069 4.642a.248.248 0 0 1-.24 0l-2.073-1.233a.214.214 0 0 0-.205 0c-.572.325-.68.362-1.216.548-.132.046-.334.118.068.343l2.707 1.595c.258.15.545.223.84.223.298 0 .581-.071.839-.223l8.069-4.643c.522-.303.839-.869.839-1.473v-9.302c0-.604-.317-1.172-.839-1.473l-8.069-4.66a1.682 1.682 0 0 0-.839-.205l-.004-.005zm2.159 6.647c-2.298 0-3.666.978-3.666 2.604 0 1.761 1.358 2.248 3.563 2.466 2.638.259 2.844.646 2.844 1.165 0 .901-.718 1.285-2.415 1.285-2.133 0-2.601-.532-2.758-1.595-.019-.114-.107-.206-.223-.206h-1.048a.246.246 0 0 0-.239.24c0 1.358.738 2.964 4.265 2.964 2.553 0 4.026-1 4.026-2.758 0-1.738-1.189-2.208-3.666-2.536-2.5-.334-2.741-.493-2.741-1.08 0-.483.203-1.13 2.056-1.13 1.655 0 2.267.357 2.518 1.473.022.105.114.19.223.19h1.047c.065 0 .127-.04.172-.085.044-.05.075-.105.068-.172-.161-1.922-1.443-2.826-4.025-2.826h-.001z" fill="#83CD29"/><path d="M64.515 7a.519.519 0 0 0-.444.257.518.518 0 0 0-.07.257V20.62a.347.347 0 0 1-.35.357.358.358 0 0 1-.18-.048l-2.142-1.234a1.027 1.027 0 0 0-1.028 0l-8.548 4.934c-.32.184-.514.54-.514.908v9.867a1.025 1.025 0 0 0 .514.891l8.548 4.934a1.024 1.024 0 0 0 1.028 0l8.548-4.934a1.027 1.027 0 0 0 .514-.89v-24.6c0-.375-.204-.726-.53-.909l-5.089-2.844a.503.503 0 0 0-.257-.05zM9.525 19.317a.967.967 0 0 0-.463.12L.514 24.371a1.023 1.023 0 0 0-.514.89l.017 13.243c0 .185.096.356.258.446a.498.498 0 0 0 .513 0l5.071-2.913c.322-.19.531-.523.531-.89v-6.185c0-.369.194-.707.514-.89l2.159-1.25c.156-.092.333-.139.514-.138.18-.001.358.046.514.137l2.157 1.25c.32.183.514.522.514.89v6.185c0 .368.214.702.531.89l5.07 2.913a.516.516 0 0 0 .771-.445l.018-13.243a1.019 1.019 0 0 0-.514-.89l-8.548-4.934a.962.962 0 0 0-.463-.12h-.102zm76.815.12c-.18 0-.358.047-.514.137l-8.548 4.934c-.32.185-.514.522-.514.89v9.868c0 .371.209.707.53.89l8.48 4.834c.313.179.696.192 1.011.017l5.14-2.861a.519.519 0 0 0 .273-.446.507.507 0 0 0-.257-.445l-8.6-4.934a.553.553 0 0 1-.274-.462v-3.086c0-.184.115-.353.274-.445l2.672-1.542a.514.514 0 0 1 .515 0l2.673 1.542a.512.512 0 0 1 .257.445v2.433a.511.511 0 0 0 .257.445.51.51 0 0 0 .514 0l5.122-2.98a1.03 1.03 0 0 0 .515-.89V25.4a1.029 1.029 0 0 0-.514-.891l-8.497-4.934a1.02 1.02 0 0 0-.514-.137zm-25.56 7.367c.048 0 .096.012.138.034l2.93 1.696c.079.046.136.131.136.223v3.392a.264.264 0 0 1-.137.222l-2.93 1.696a.26.26 0 0 1-.256 0l-2.93-1.696a.265.265 0 0 1-.137-.222v-3.393c0-.092.058-.176.137-.223l2.93-1.695a.225.225 0 0 1 .12-.034z" fill="#404137"/><path d="M35.204 19.386c-.18 0-.358.047-.514.137L26.14 24.44c-.32.184-.513.539-.513.907v9.868a1.024 1.024 0 0 0 .513.89l8.549 4.934a1.024 1.024 0 0 0 1.028 0l8.548-4.934a1.026 1.026 0 0 0 .514-.89v-9.868c0-.369-.194-.724-.514-.908l-8.549-4.916a1.016 1.016 0 0 0-.514-.137h.001zm51.12 8.805c-.035 0-.073 0-.103.017l-1.645.96a.2.2 0 0 0-.103.17v1.885a.2.2 0 0 0 .103.172l1.645.942a.178.178 0 0 0 .188 0l1.644-.942a.201.201 0 0 0 .103-.172V29.34a.202.202 0 0 0-.103-.172l-1.644-.96c-.03-.017-.052-.016-.086-.016z" fill="#83CD29"/></svg>