<svg width="122" height="50" fill="none" xmlns="http://www.w3.org/2000/svg"><path d="M23.361 29.227a4.09 4.09 0 1 0 0-8.179 4.09 4.09 0 0 0 0 8.18z" fill="#00D8FF"/><path clip-rule="evenodd" d="M23.36 16.823c5.492 0 10.593.788 14.439 2.112 4.634 1.595 7.483 4.013 7.483 6.203 0 2.282-3.02 4.85-7.996 6.5-3.762 1.246-8.713 1.897-13.925 1.897-5.344 0-10.405-.611-14.21-1.911-4.813-1.645-7.712-4.248-7.712-6.486 0-2.172 2.72-4.571 7.29-6.164 3.86-1.346 9.087-2.151 14.631-2.151z" stroke="#00D8FF" stroke-width="1.957"/><path clip-rule="evenodd" d="M16.122 21.004c2.744-4.756 5.974-8.782 9.043-11.452 3.697-3.217 7.215-4.477 9.112-3.383 1.976 1.14 2.693 5.039 1.636 10.173-.8 3.882-2.71 8.496-5.314 13.011-2.67 4.63-5.727 8.708-8.753 11.354-3.83 3.348-7.533 4.56-9.472 3.44-1.881-1.083-2.6-4.64-1.698-9.393.762-4.017 2.676-8.947 5.445-13.75h.001z" stroke="#00D8FF" stroke-width="1.957"/><path clip-rule="evenodd" d="M16.13 29.365c-2.752-4.75-4.625-9.561-5.406-13.553-.942-4.81-.276-8.487 1.619-9.584 1.975-1.143 5.71.183 9.63 3.663 2.965 2.632 6.008 6.59 8.62 11.101 2.677 4.625 4.684 9.311 5.464 13.254.988 4.99.189 8.803-1.748 9.925-1.88 1.088-5.32-.064-8.987-3.22-3.1-2.667-6.415-6.787-9.193-11.586z" stroke="#00D8FF" stroke-width="1.957"/><path fill-rule="evenodd" clip-rule="evenodd" d="m68.757 35.587-5.012-7.573c2.533-.224 4.816-2.06 4.816-5.413 0-3.413-2.422-5.597-5.819-5.597h-7.46v18.569h2.31v-7.378h3.704l4.733 7.378 2.728.014zm-6.291-9.41h-4.872v-7.1h4.872c2.2 0 3.703 1.448 3.703 3.537 0 2.088-1.504 3.565-3.703 3.565v-.002zM77.36 35.92c2.2 0 4.01-.724 5.346-2.06l-1.003-1.364c-1.059 1.086-2.617 1.698-4.147 1.698-2.895 0-4.678-2.116-4.845-4.648h10.885v-.53c0-4.036-2.395-7.21-6.46-7.21-3.842 0-6.625 3.146-6.625 7.043 0 4.204 2.867 7.06 6.848 7.06l.001.01zm4.177-7.908h-8.825c.112-2.059 1.53-4.483 4.399-4.483 3.063 0 4.398 2.478 4.426 4.483zm15.926 7.574v-9.243c0-3.257-2.365-4.539-5.206-4.539-2.2 0-3.925.724-5.373 2.228l.975 1.447c1.196-1.28 2.506-1.865 4.12-1.865 1.95 0 3.398 1.03 3.398 2.84v2.42c-1.086-1.252-2.617-1.837-4.455-1.837-2.283 0-4.707 1.42-4.707 4.427 0 2.923 2.421 4.455 4.707 4.455 1.81 0 3.341-.64 4.455-1.865v1.53l2.086.002zm-5.79-1.17c-1.948 0-3.313-1.224-3.313-2.923 0-1.726 1.365-2.951 3.314-2.951 1.475 0 2.894.556 3.703 1.67v2.534c-.808 1.113-2.228 1.67-3.703 1.67zm15.886 1.504c2.45 0 3.897-1.003 4.928-2.338l-1.392-1.28c-.891 1.196-2.032 1.753-3.412 1.753-2.868 0-4.648-2.228-4.648-5.206s1.781-5.177 4.648-5.177c1.392 0 2.533.53 3.412 1.753l1.392-1.28c-1.03-1.337-2.478-2.338-4.928-2.338-4.009 0-6.71 3.062-6.71 7.043 0 4.01 2.701 7.06 6.71 7.06v.01zm11.249 0c1.224 0 1.977-.363 2.507-.863l-.612-1.559c-.279.306-.824.557-1.421.557-.917 0-1.365-.724-1.365-1.727v-8.352h2.73V22.14h-2.73v-3.675h-2.088v3.675h-2.228v1.837h2.228v8.799c0 2.005 1.002 3.146 2.979 3.146v-.002z" fill="#00D8FF"/></svg>