<svg width="122" height="50" fill="none" xmlns="http://www.w3.org/2000/svg"><path fill-rule="evenodd" clip-rule="evenodd" d="M41.615 7.056v35.895c0 3.727 8.338 6.748 18.622 6.748V7.056H41.615z" fill="#0072C6"/><path fill-rule="evenodd" clip-rule="evenodd" d="M59.982 49.699h.255c10.284 0 18.621-3.02 18.621-6.747V7.057H59.982V49.7v-.001z" fill="#0072C6"/><path opacity=".15" fill-rule="evenodd" clip-rule="evenodd" d="M59.982 49.699h.255c10.284 0 18.621-3.02 18.621-6.747V7.057H59.982V49.7v-.001z" fill="#fff"/><path fill-rule="evenodd" clip-rule="evenodd" d="M78.858 7.056c0 3.727-8.337 6.748-18.621 6.748-10.284 0-18.622-3.021-18.622-6.748C41.615 3.33 49.953.31 60.237.31s18.621 3.02 18.621 6.747z" fill="#fff"/><path fill-rule="evenodd" clip-rule="evenodd" d="M75.05 6.667c0 2.46-6.632 4.452-14.813 4.452-8.182 0-14.816-1.991-14.816-4.452 0-2.46 6.634-4.452 14.816-4.452 8.181 0 14.813 1.993 14.813 4.452z" fill="#7FBA00"/><path fill-rule="evenodd" clip-rule="evenodd" d="M71.948 9.389c1.939-.753 3.104-1.695 3.104-2.72 0-2.46-6.633-4.452-14.815-4.452-8.183 0-14.814 1.992-14.814 4.453 0 1.023 1.165 1.966 3.105 2.719 2.708-1.052 6.94-1.73 11.71-1.73 4.768 0 9 .678 11.71 1.73z" fill="#B8D432"/><path fill-rule="evenodd" clip-rule="evenodd" d="M54.322 31.973c0 1.115-.404 1.979-1.213 2.59-.81.613-1.925.92-3.351.92-1.213 0-2.227-.219-3.041-.657v-2.624c.94.798 1.975 1.198 3.106 1.198.546 0 .969-.11 1.267-.329.298-.22.447-.508.447-.87 0-.355-.144-.664-.43-.926-.287-.262-.87-.601-1.75-1.017-1.793-.84-2.688-1.99-2.688-3.443 0-1.054.39-1.9 1.172-2.537.782-.637 1.82-.955 3.114-.955 1.147 0 2.097.15 2.852.45v2.452c-.792-.547-1.694-.82-2.704-.82-.508 0-.91.108-1.204.323a1.02 1.02 0 0 0-.442.865c0 .372.118.677.357.915.238.237.725.531 1.462.881 1.099.52 1.88 1.047 2.349 1.583.468.536.697 1.204.697 2zm12.644-2.656c0 1.383-.314 2.583-.942 3.599-.629 1.016-1.514 1.73-2.655 2.14l3.408 3.157h-3.441l-2.434-2.731c-1.043-.038-1.985-.314-2.824-.828a5.188 5.188 0 0 1-1.942-2.112c-.455-.893-.684-1.89-.684-2.988 0-1.219.247-2.305.74-3.26.495-.953 1.19-1.687 2.086-2.201.897-.514 1.923-.77 3.082-.77 1.08 0 2.05.248 2.905.746s1.518 1.204 1.991 2.123c.473.919.71 1.96.71 3.125zm-2.785.148c0-1.192-.26-2.133-.78-2.825-.519-.692-1.228-1.038-2.13-1.038-.918 0-1.653.347-2.205 1.04-.552.694-.827 1.618-.827 2.772 0 1.148.27 2.064.81 2.75.54.686 1.26 1.029 2.155 1.029.913 0 1.636-.332 2.172-.996.536-.664.805-1.574.805-2.732zm11.727 5.812h-6.999V23.52h2.647v9.609h4.351v2.148z" fill="#fff"/></svg>