<svg width="122" height="50" fill="none" xmlns="http://www.w3.org/2000/svg"><path d="M36 0h50v50H36" fill="#3178C6"/><path d="M58.754 27.734h6.25V23.73h-17.48v4.004h6.25v17.871h4.98v-17.87zm8.203 16.895c1.76.9 4.132 1.22 6.25 1.22 1.826 0 4.192-.237 6.055-1.406.79-.517 1.465-1.171 1.855-2.05.39-.88.694-1.856.694-3.125-.01-4.019-2.86-5.351-5.674-6.641-1.278-.581-4.15-1.52-4.15-3.33 0-1.46 1.64-2.2 3.73-2.207 1.629 0 3.818.53 5.176 1.527v-4.59c-1.833-.704-3.754-.836-5.47-.84-4.809 0-8.56 1.985-8.593 6.524.048 3.429 2.082 4.926 5.078 6.348 1.632.738 4.646 1.683 4.668 3.73-.071 1.911-2.4 2.202-3.75 2.217-2.105 0-4.332-.8-5.869-2.065v4.688z" fill="#fff"/></svg>